<mxfile host="app.diagrams.net" modified="2022-08-06T09:18:59.358Z" agent="5.0 (Windows NT 10.0; Win64; x64) AppleWebKit/537.36 (KHTML, like Gecko) Chrome/103.0.0.0 Safari/537.36" etag="fAyblUwnnXPWjemtyT4P" version="18.0.6" type="github">
  <diagram id="0FZLDUous1CY96WzEEPo" name="第 1 页">
    <mxGraphModel dx="2062" dy="1122" grid="1" gridSize="10" guides="1" tooltips="1" connect="1" arrows="1" fold="1" page="1" pageScale="1" pageWidth="827" pageHeight="1169" math="0" shadow="0">
      <root>
        <mxCell id="0" />
        <mxCell id="1" parent="0" />
        <mxCell id="Q-KWCwTe-8yVtB8AZuvc-8" value="" style="edgeStyle=orthogonalEdgeStyle;rounded=0;orthogonalLoop=1;jettySize=auto;html=1;fontSize=14;" edge="1" parent="1" source="Q-KWCwTe-8yVtB8AZuvc-1" target="Q-KWCwTe-8yVtB8AZuvc-2">
          <mxGeometry relative="1" as="geometry" />
        </mxCell>
        <mxCell id="Q-KWCwTe-8yVtB8AZuvc-1" value="&lt;ul style=&quot;font-size: 14px;&quot;&gt;&lt;li&gt;&lt;span style=&quot;background-color: initial;&quot;&gt;存在肾上腺病变（或怀疑）垂体病变，&lt;br&gt;&lt;div style=&quot;text-align: left;&quot;&gt;&lt;span style=&quot;background-color: initial;&quot;&gt;或高危人群&lt;/span&gt;&lt;/div&gt;&lt;/span&gt;&lt;/li&gt;&lt;li style=&quot;text-align: left;&quot;&gt;&lt;span style=&quot;background-color: initial;&quot;&gt;缺乏库欣综合征的特征&lt;/span&gt;&lt;/li&gt;&lt;li style=&quot;text-align: left;&quot;&gt;&lt;span style=&quot;background-color: initial;&quot;&gt;基础血清皮质醇水平正常&lt;/span&gt;&lt;/li&gt;&lt;/ul&gt;" style="rounded=1;whiteSpace=wrap;html=1;fillColor=#ffe6cc;strokeColor=#d79b00;" vertex="1" parent="1">
          <mxGeometry x="200" y="40" width="320" height="110" as="geometry" />
        </mxCell>
        <mxCell id="Q-KWCwTe-8yVtB8AZuvc-9" style="edgeStyle=orthogonalEdgeStyle;rounded=0;orthogonalLoop=1;jettySize=auto;html=1;entryX=0.5;entryY=0;entryDx=0;entryDy=0;fontSize=14;" edge="1" parent="1" source="Q-KWCwTe-8yVtB8AZuvc-2" target="Q-KWCwTe-8yVtB8AZuvc-3">
          <mxGeometry relative="1" as="geometry" />
        </mxCell>
        <mxCell id="Q-KWCwTe-8yVtB8AZuvc-10" style="edgeStyle=orthogonalEdgeStyle;rounded=0;orthogonalLoop=1;jettySize=auto;html=1;exitX=1;exitY=0.5;exitDx=0;exitDy=0;entryX=0.5;entryY=0;entryDx=0;entryDy=0;fontSize=14;" edge="1" parent="1" source="Q-KWCwTe-8yVtB8AZuvc-2" target="Q-KWCwTe-8yVtB8AZuvc-4">
          <mxGeometry relative="1" as="geometry" />
        </mxCell>
        <mxCell id="Q-KWCwTe-8yVtB8AZuvc-2" value="1mg地塞米松抑制实验" style="rounded=0;whiteSpace=wrap;html=1;fontSize=14;fillColor=#b1ddf0;strokeColor=#10739e;" vertex="1" parent="1">
          <mxGeometry x="270" y="180" width="180" height="60" as="geometry" />
        </mxCell>
        <mxCell id="Q-KWCwTe-8yVtB8AZuvc-15" style="edgeStyle=orthogonalEdgeStyle;rounded=0;orthogonalLoop=1;jettySize=auto;html=1;exitX=0.5;exitY=1;exitDx=0;exitDy=0;fontSize=14;" edge="1" parent="1" source="Q-KWCwTe-8yVtB8AZuvc-3" target="Q-KWCwTe-8yVtB8AZuvc-14">
          <mxGeometry relative="1" as="geometry" />
        </mxCell>
        <mxCell id="Q-KWCwTe-8yVtB8AZuvc-3" value="DST &amp;lt; 1.8ug/dL" style="rounded=0;whiteSpace=wrap;html=1;fontSize=14;fillColor=#ffe6cc;strokeColor=#d79b00;" vertex="1" parent="1">
          <mxGeometry x="80" y="290" width="120" height="60" as="geometry" />
        </mxCell>
        <mxCell id="Q-KWCwTe-8yVtB8AZuvc-11" style="edgeStyle=orthogonalEdgeStyle;rounded=0;orthogonalLoop=1;jettySize=auto;html=1;exitX=0.5;exitY=1;exitDx=0;exitDy=0;entryX=0.5;entryY=0;entryDx=0;entryDy=0;fontSize=14;" edge="1" parent="1" source="Q-KWCwTe-8yVtB8AZuvc-4" target="Q-KWCwTe-8yVtB8AZuvc-5">
          <mxGeometry relative="1" as="geometry" />
        </mxCell>
        <mxCell id="Q-KWCwTe-8yVtB8AZuvc-4" value="DST&amp;nbsp; &amp;gt;= 1.8ug/dL" style="rounded=0;whiteSpace=wrap;html=1;fontSize=14;fillColor=#fad7ac;strokeColor=#b46504;" vertex="1" parent="1">
          <mxGeometry x="520" y="300" width="120" height="60" as="geometry" />
        </mxCell>
        <mxCell id="Q-KWCwTe-8yVtB8AZuvc-12" style="edgeStyle=orthogonalEdgeStyle;rounded=0;orthogonalLoop=1;jettySize=auto;html=1;entryX=0.5;entryY=0;entryDx=0;entryDy=0;fontSize=14;" edge="1" parent="1" source="Q-KWCwTe-8yVtB8AZuvc-5" target="Q-KWCwTe-8yVtB8AZuvc-6">
          <mxGeometry relative="1" as="geometry" />
        </mxCell>
        <mxCell id="Q-KWCwTe-8yVtB8AZuvc-13" style="edgeStyle=orthogonalEdgeStyle;rounded=0;orthogonalLoop=1;jettySize=auto;html=1;exitX=1;exitY=0.5;exitDx=0;exitDy=0;entryX=0.5;entryY=0;entryDx=0;entryDy=0;fontSize=14;" edge="1" parent="1" source="Q-KWCwTe-8yVtB8AZuvc-5" target="Q-KWCwTe-8yVtB8AZuvc-7">
          <mxGeometry relative="1" as="geometry" />
        </mxCell>
        <mxCell id="Q-KWCwTe-8yVtB8AZuvc-5" value="小剂量地塞米松抑制实验" style="rounded=0;whiteSpace=wrap;html=1;fontSize=14;fillColor=#b1ddf0;strokeColor=#10739e;" vertex="1" parent="1">
          <mxGeometry x="479.5" y="420" width="201" height="60" as="geometry" />
        </mxCell>
        <mxCell id="Q-KWCwTe-8yVtB8AZuvc-16" style="edgeStyle=orthogonalEdgeStyle;rounded=0;orthogonalLoop=1;jettySize=auto;html=1;entryX=0.5;entryY=1;entryDx=0;entryDy=0;fontSize=14;" edge="1" parent="1" source="Q-KWCwTe-8yVtB8AZuvc-6" target="Q-KWCwTe-8yVtB8AZuvc-14">
          <mxGeometry relative="1" as="geometry" />
        </mxCell>
        <mxCell id="Q-KWCwTe-8yVtB8AZuvc-6" value="DST &amp;lt; 1.8ug/dL" style="rounded=0;whiteSpace=wrap;html=1;fontSize=14;fillColor=#fad7ac;strokeColor=#b46504;" vertex="1" parent="1">
          <mxGeometry x="320" y="520" width="120" height="60" as="geometry" />
        </mxCell>
        <mxCell id="Q-KWCwTe-8yVtB8AZuvc-18" style="edgeStyle=orthogonalEdgeStyle;rounded=0;orthogonalLoop=1;jettySize=auto;html=1;exitX=0.5;exitY=1;exitDx=0;exitDy=0;fontSize=14;" edge="1" parent="1" source="Q-KWCwTe-8yVtB8AZuvc-7" target="Q-KWCwTe-8yVtB8AZuvc-17">
          <mxGeometry relative="1" as="geometry" />
        </mxCell>
        <mxCell id="Q-KWCwTe-8yVtB8AZuvc-7" value="DST&amp;nbsp; &amp;gt;= 1.8ug/dL" style="rounded=0;whiteSpace=wrap;html=1;fontSize=14;fillColor=#fad7ac;strokeColor=#b46504;" vertex="1" parent="1">
          <mxGeometry x="760" y="520" width="120" height="60" as="geometry" />
        </mxCell>
        <mxCell id="Q-KWCwTe-8yVtB8AZuvc-14" value="排除" style="rounded=0;whiteSpace=wrap;html=1;fontSize=14;" vertex="1" parent="1">
          <mxGeometry x="80" y="420" width="120" height="60" as="geometry" />
        </mxCell>
        <mxCell id="Q-KWCwTe-8yVtB8AZuvc-21" value="" style="edgeStyle=orthogonalEdgeStyle;rounded=0;orthogonalLoop=1;jettySize=auto;html=1;fontSize=14;" edge="1" parent="1" source="Q-KWCwTe-8yVtB8AZuvc-17" target="Q-KWCwTe-8yVtB8AZuvc-20">
          <mxGeometry relative="1" as="geometry" />
        </mxCell>
        <mxCell id="Q-KWCwTe-8yVtB8AZuvc-17" value="亚临床库欣综合征" style="rounded=0;whiteSpace=wrap;html=1;fontSize=14;" vertex="1" parent="1">
          <mxGeometry x="760" y="640" width="120" height="60" as="geometry" />
        </mxCell>
        <mxCell id="Q-KWCwTe-8yVtB8AZuvc-20" value="ATCH水平测定" style="whiteSpace=wrap;html=1;fontSize=14;rounded=0;" vertex="1" parent="1">
          <mxGeometry x="760" y="750" width="120" height="60" as="geometry" />
        </mxCell>
      </root>
    </mxGraphModel>
  </diagram>
</mxfile>
